<svg id="Layer_1" data-name="Layer 1" xmlns="http://www.w3.org/2000/svg" viewBox="0 0 2000 2000"><defs><style>.cls-1{font-size:510.07932px;font-family:BebasNeueLight, Bebas Neue;}.cls-2{font-size:146.90285px;font-family:SnellRoundhand, Snell Roundhand;}.cls-3,.cls-4{fill:none;stroke:#000;stroke-miterlimit:10;}.cls-3{stroke-width:10px;}.cls-4{stroke-width:4px;}</style></defs><title>Artboard 1</title><text class="cls-1" transform="translate(53.81435 1171.12891)">MERAK</text><text class="cls-2" transform="translate(1079.03798 1067.76172)">simply stellar</text><line class="cls-3" x1="737.5974" y1="1081.96339" x2="1227" y2="1081.96339"/><line class="cls-3" x1="1257.5974" y1="1081.96339" x2="1300" y2="1081.96339"/><line class="cls-3" x1="1391.5974" y1="1081.96339" x2="1727" y2="1081.96339"/><line class="cls-4" x1="1399.34535" y1="1079.94323" x2="1790.39876" y2="1079.94323"/><path d="M1909.63966,1199.51273c-7.759-21.68236-15.16809-43.49961-23.44923-64.98067-3.31156-8.59011-2.17147-13.70869,5.634-19.32826a500.78155,500.78155,0,0,0,54.36121-45.03664c-17.2576.50011-34.51845.90845-51.77208,1.5206-30.24037,1.073-30.21956,1.11864-40.39627-27.82362-5.65232-16.075-11.38034-32.12335-19.66884-48.32852-6.36608,21.42895-13.86775,42.60765-18.66626,64.38206-2.81463,12.772-9.22565,14.5584-20.35368,14.82791-84.98827,2.05824-169.96349,4.65491-254.94272,7.086-13.72608.39267-27.45184.79482-41.16447,2.23152,56.65723.99275,113.31285,2.09557,169.97225,2.94422,47.21454.70718,94.439.8618,141.646,1.86942,9.57629.20445,13.74967-3.01165,15.68172-12.15383,2.10589-9.96483,5.70476-19.61414,8.65279-29.401l3.59962-.83563c3.612,9.997,7.81923,19.82849,10.65817,30.04034,2.524,9.07909,7.28532,12.21166,16.613,11.22452,10.52746-1.11411,21.206-.80091,31.81878-1.10846l1.70243,3.18853c-8.70384,6.88736-17.05329,14.29892-26.22276,20.49743-7.43766,5.02784-8.73437,10.174-5.26183,18.29271a110.40175,110.40175,0,0,1,8.6,32.86144c-9.796-6.53591-19.842-12.73448-29.29111-19.73839-5.38375-3.99061-9.05256-4.29816-14.41224.33382-16.224,14.0212-33.447,26.91331-49.28819,41.33553-5.36329,4.88288-7.76542,13.0183-11.52077,19.66731l3.19569,2.34336c18.17192-14.04768,36.70433-27.66219,54.34843-42.34422,7.66559-6.37872,13.09222-6.52559,21.08069-.71467,18.52746,13.47718,37.77315,25.967,56.72767,38.85714Z"/></svg>